<svg xmlns="http://www.w3.org/2000/svg" width="630" height="160" viewBox="0 0 840 213.333">
  <defs>
    <style>
      .cls-1 {
        fill: #2c2d36;
        fill-rule: evenodd;
      }
    </style>
  </defs>
  <path id="devato" class="cls-1" d="M142.861,588.573A46.589,46.589,0,0,0,160.684,576.9V589.68H195.1V406.534H158.226v60.229q-14.261-14.254-38.6-14.258a65.362,65.362,0,0,0-34.417,9.341,69.054,69.054,0,0,0-24.583,25.2,70.091,70.091,0,0,0-9.1,35.523,71.014,71.014,0,0,0,8.973,35.4,67.774,67.774,0,0,0,24.46,25.321,66.236,66.236,0,0,0,34.909,9.342A64.256,64.256,0,0,0,142.861,588.573Zm-43.39-39.456q-9.835-10.324-9.833-26.55,0-15.976,9.833-26.427t24.83-10.448q14.991,0,24.46,10.325t9.465,26.55q0,16.473-9.465,26.673t-24.46,10.2Q109.3,559.442,99.471,549.117Zm219.282,34.54q15.488-8.971,21.633-23.723l-29.5-14.013a28.305,28.305,0,0,1-10.94,10.817q-7,3.936-16.839,3.933-13.523,0-22.125-7.62t-10.325-20.159h94.4a26.831,26.831,0,0,0,1.352-6.514q0.369-3.808.369-7.744a64.368,64.368,0,0,0-8.85-33.556,66.858,66.858,0,0,0-23.846-23.723q-15-8.85-33.925-8.85A66.315,66.315,0,0,0,221.28,486.43q-8.978,15.735-8.973,35.891a72.612,72.612,0,0,0,8.727,35.4,65.974,65.974,0,0,0,24.583,25.444q15.857,9.466,37,9.465Q303.266,592.63,318.753,583.657Zm-19.544-95.138q7.5,6.517,8.481,17.332h-56.3q2.7-11.553,10.325-17.7a28.445,28.445,0,0,1,18.438-6.146Q291.709,482.005,299.209,488.519ZM431.345,589.68l52.608-134.225h-38.1l-30.484,85.058-30.483-85.058h-38.1L399.386,589.68h31.959Zm123.287-.615a45.7,45.7,0,0,0,16.84-11.677V589.68h34.417v-88.5q0-14.5-7.252-25.444a48.664,48.664,0,0,0-20.159-17.085q-12.906-6.143-30.114-6.146-21.389,0-37.49,9.833t-22,26.55l31.713,15.242a27.433,27.433,0,0,1,10.447-14.382,29.33,29.33,0,0,1,17.332-5.285q9.339,0,15,4.548a14.825,14.825,0,0,1,5.655,12.169v4.425l-42.038,8.85q-20.408,4.182-31.712,13.889a31.139,31.139,0,0,0-11.309,24.707,35.129,35.129,0,0,0,6.023,20.035,41.377,41.377,0,0,0,17.209,14.258q11.183,5.284,26.427,5.286A58.01,58.01,0,0,0,554.632,589.065Zm-21.018-49.044,35.4-7.866v6.391a25.01,25.01,0,0,1-8.6,19.175q-8.608,7.87-21.142,7.867-7.871,0-12.538-3.442a11.227,11.227,0,0,1-4.67-9.587q0-9.83,11.554-12.538h0ZM707.17,589.926V560.917a62.813,62.813,0,0,1-8.6.738q-22.862,0-22.862-20.4V487.413H707.17V455.455H675.7V415.138H638.828v19.667q0,20.649-21.388,20.65h-1.72v31.958h23.108v53.838q0,23.6,13.4,36.752t37.735,13.152a115.131,115.131,0,0,0,17.209-1.229h0Zm117.875-6.392a68.928,68.928,0,0,0,25.935-24.952q9.588-15.856,9.588-36.015,0-20.4-9.588-36.137A69.278,69.278,0,0,0,825.045,461.6a76.823,76.823,0,0,0-72.521,0,69.248,69.248,0,0,0-25.935,24.829Q717,502.165,717,522.567q0,20.16,9.588,36.015a68.9,68.9,0,0,0,25.935,24.952A76.823,76.823,0,0,0,825.045,583.534Zm-60.6-34.417q-9.345-10.324-9.342-26.55,0-15.976,9.342-26.427t24.337-10.448q15.24,0,24.461,10.448t9.219,26.427q0,16.226-9.219,26.55t-24.461,10.325Q773.787,559.442,764.447,549.117Z" transform="translate(-36.047 -392.911)"/>
</svg>
